<?xml version="1.0" standalone="no"?>
<!DOCTYPE svg PUBLIC "-//W3C//DTD SVG 20010904//EN"
 "http://www.w3.org/TR/2001/REC-SVG-20010904/DTD/svg10.dtd">
<svg version="1.0" xmlns="http://www.w3.org/2000/svg"
 width="632.000000pt" height="632.000000pt" viewBox="0 0 632.000000 632.000000"
 preserveAspectRatio="xMidYMid meet">
<metadata>
Created by potrace 1.14, written by Peter Selinger 2001-2017
</metadata>
<g transform="translate(0.000000,632.000000) scale(0.100000,-0.100000)"
fill="#000000" stroke="none">
<path d="M3144 6221 c-5 -5 -34 -22 -64 -39 -30 -16 -95 -53 -145 -82 -49 -29
-110 -64 -135 -78 -25 -14 -56 -32 -70 -41 -14 -10 -36 -23 -50 -29 -14 -7
-34 -18 -45 -25 -11 -7 -54 -31 -95 -55 -41 -24 -91 -52 -110 -64 -79 -47
-627 -362 -669 -385 -25 -14 -50 -29 -56 -33 -5 -4 -118 -70 -250 -145 -294
-169 -280 -161 -390 -225 -49 -29 -110 -64 -135 -78 -46 -26 -138 -79 -169
-97 -9 -5 -98 -57 -197 -114 l-179 -103 2 -1596 c1 -1325 3 -1597 15 -1603 23
-15 657 -382 1098 -637 234 -135 493 -284 575 -332 83 -47 209 -120 280 -162
72 -41 150 -86 175 -100 25 -14 73 -42 108 -63 35 -20 66 -34 69 -31 3 3 5
720 5 1594 l0 1589 96 55 c124 71 408 235 732 423 140 81 275 159 300 173 25
13 86 49 135 78 50 29 247 143 438 253 l349 201 136 -79 c75 -43 175 -101 222
-128 l85 -49 0 -1178 c0 -648 -2 -1181 -5 -1185 -3 -4 -126 -77 -275 -162
-213 -123 -759 -438 -1024 -592 -21 -12 -97 -56 -170 -97 l-131 -75 0 -417 0
-417 138 80 c75 44 144 84 152 89 8 6 22 13 30 17 8 3 26 14 40 23 14 9 50 31
80 47 111 61 475 272 487 283 7 5 15 10 18 10 3 0 60 32 128 71 67 40 137 80
155 90 45 26 398 230 587 339 17 10 134 77 260 150 127 72 234 136 239 141 6
5 10 652 10 1603 l1 1595 -90 52 c-49 28 -130 75 -180 104 -184 107 -401 233
-445 257 -25 14 -101 58 -170 98 -68 40 -139 81 -156 91 -17 9 -40 23 -51 30
-21 12 -40 4 -448 -211 -49 -26 -144 -76 -210 -110 -406 -211 -432 -226 -595
-320 -282 -165 -432 -250 -440 -250 -5 0 -10 -3 -12 -7 -2 -6 -276 -166 -548
-320 -19 -11 -91 -53 -160 -93 -69 -40 -144 -84 -166 -96 -23 -13 -90 -52
-150 -87 l-109 -63 0 -1177 c0 -658 -4 -1177 -9 -1177 -8 0 -118 57 -256 135
-41 23 -115 63 -165 90 -49 26 -94 51 -100 55 -5 4 -59 33 -118 64 -100 53
-175 94 -221 122 -17 10 -18 62 -17 1155 0 629 0 1167 1 1194 l0 50 93 55 c50
30 94 55 97 55 3 0 16 8 30 17 30 19 392 228 470 271 30 17 99 57 153 89 53
32 99 58 101 58 2 0 48 26 103 58 54 32 118 70 143 84 25 14 86 49 135 78 50
29 108 62 130 75 227 129 683 396 1233 726 63 37 63 38 40 52 -24 16 -381 222
-458 265 -25 14 -61 35 -80 47 -94 57 -147 84 -156 76z"/>
<path d="M4246 3200 c-54 -33 -100 -60 -101 -60 -1 0 -52 -29 -113 -64 -61
-36 -131 -76 -154 -89 -102 -58 -313 -180 -317 -183 -10 -9 -6 -924 4 -924 6
0 48 23 94 50 46 28 85 50 86 50 2 0 112 64 246 142 134 77 264 153 289 167
25 14 54 31 64 37 18 11 19 32 18 460 0 511 0 474 -9 474 -5 -1 -52 -28 -107
-60z"/>
</g>
</svg>
